<svg width="24" height="25" viewBox="0 0 24 25" fill="none" xmlns="http://www.w3.org/2000/svg">
<path fill-rule="evenodd" clip-rule="evenodd" d="M3 12.0018C3 10.82 3.23279 9.6497 3.68508 8.55782C4.13738 7.46595 4.80031 6.47384 5.63604 5.63816C6.47177 4.80247 7.46392 4.13957 8.55585 3.6873C9.64778 3.23503 10.8181 3.00225 12 3.00225C13.1819 3.00225 14.3522 3.23503 15.4442 3.6873C16.5361 4.13957 17.5282 4.80247 18.364 5.63816C19.1997 6.47384 19.8626 7.46595 20.3149 8.55782C20.7672 9.6497 21 10.82 21 12.0018C21 14.3886 20.0518 16.6777 18.364 18.3654C16.6761 20.0532 14.3869 21.0014 12 21.0014C9.61305 21.0014 7.32387 20.0532 5.63604 18.3654C3.94821 16.6777 3 14.3886 3 12.0018ZM12 1.00235C5.925 1.00235 1 5.92711 1 12.0018C1 18.0765 5.925 23.0013 12 23.0013C18.075 23.0013 23 18.0765 23 12.0018C23 5.92711 18.075 1.00235 12 1.00235ZM7.707 9.29494C7.5184 9.11279 7.2658 9.012 7.0036 9.01428C6.7414 9.01656 6.49059 9.12172 6.30518 9.30712C6.11977 9.49252 6.0146 9.74332 6.01233 10.0055C6.01005 10.2677 6.11084 10.5203 6.293 10.7089L11.293 15.7086C11.4805 15.8961 11.7348 16.0014 12 16.0014C12.2652 16.0014 12.5195 15.8961 12.707 15.7086L17.707 10.7089C17.8892 10.5203 17.99 10.2677 17.9877 10.0055C17.9854 9.74332 17.8802 9.49252 17.6948 9.30712C17.5094 9.12172 17.2586 9.01656 16.9964 9.01428C16.7342 9.012 16.4816 9.11279 16.293 9.29494L12 13.5877L7.707 9.29494Z" fill="black"/>
</svg>
